<?xml version="1.0" encoding="UTF-8"?>
<svg xmlns="http://www.w3.org/2000/svg" xmlns:xlink="http://www.w3.org/1999/xlink" width="12px" height="12px" viewBox="0 0 12 12" version="1.1">
<g id="surface1">
<path style=" stroke:none;fill-rule:nonzero;fill:rgb(88.627451%,26.27451%,16.078431%);fill-opacity:1;" d="M 11.785156 4.839844 L 11.769531 4.796875 L 10.140625 0.542969 C 10.105469 0.460938 10.046875 0.390625 9.96875 0.34375 C 9.816406 0.246094 9.613281 0.257812 9.472656 0.371094 C 9.402344 0.425781 9.351562 0.5 9.328125 0.589844 L 8.226562 3.957031 L 3.773438 3.957031 L 2.675781 0.589844 C 2.648438 0.5 2.597656 0.425781 2.527344 0.371094 C 2.386719 0.253906 2.183594 0.246094 2.03125 0.34375 C 1.953125 0.390625 1.894531 0.460938 1.863281 0.542969 L 0.230469 4.792969 L 0.214844 4.835938 C -0.265625 6.097656 0.140625 7.519531 1.21875 8.332031 L 1.222656 8.339844 L 1.238281 8.347656 L 3.722656 10.207031 L 4.949219 11.136719 L 5.695312 11.699219 C 5.875 11.835938 6.121094 11.835938 6.304688 11.699219 L 7.050781 11.136719 L 8.277344 10.207031 L 10.777344 8.339844 L 10.78125 8.332031 C 11.855469 7.519531 12.261719 6.097656 11.785156 4.839844 Z M 11.785156 4.839844 "/>
<path style=" stroke:none;fill-rule:nonzero;fill:rgb(98.823529%,42.745098%,14.901961%);fill-opacity:1;" d="M 11.785156 4.839844 L 11.769531 4.796875 C 10.972656 4.960938 10.222656 5.292969 9.578125 5.78125 L 6 8.488281 C 7.21875 9.40625 8.277344 10.210938 8.277344 10.210938 L 10.777344 8.339844 L 10.78125 8.335938 C 11.855469 7.523438 12.265625 6.097656 11.785156 4.839844 Z M 11.785156 4.839844 "/>
<path style=" stroke:none;fill-rule:nonzero;fill:rgb(98.823529%,63.921569%,14.901961%);fill-opacity:1;" d="M 3.722656 10.210938 L 4.949219 11.136719 L 5.695312 11.699219 C 5.875 11.839844 6.121094 11.839844 6.304688 11.699219 L 7.050781 11.136719 L 8.277344 10.210938 C 8.277344 10.210938 7.21875 9.402344 6 8.488281 C 4.78125 9.402344 3.722656 10.210938 3.722656 10.210938 Z M 3.722656 10.210938 "/>
<path style=" stroke:none;fill-rule:nonzero;fill:rgb(98.823529%,42.745098%,14.901961%);fill-opacity:1;" d="M 2.417969 5.78125 C 1.773438 5.292969 1.027344 4.957031 0.230469 4.792969 L 0.214844 4.835938 C -0.265625 6.097656 0.140625 7.519531 1.21875 8.332031 L 1.222656 8.339844 L 1.238281 8.347656 L 3.722656 10.207031 C 3.722656 10.207031 4.777344 9.402344 6 8.484375 Z M 2.417969 5.78125 "/>
</g>
</svg>
